<?xml version="1.0" encoding="UTF-8"?>
<svg width="752pt" height="752pt" version="1.1" viewBox="0 0 752 752" xmlns="http://www.w3.org/2000/svg">
 <g>
  <path d="m524 306.94h-295.99c-5.4492 0-9.8672-4.418-9.8672-9.8672 0-5.4492 4.418-9.8672 9.8672-9.8672h295.99c5.4492 0 9.8672 4.418 9.8672 9.8672 0 5.4492-4.418 9.8672-9.8672 9.8672z"/>
  <path d="m524 385.87h-295.99c-5.4492 0-9.8672-4.418-9.8672-9.8672s4.418-9.8633 9.8672-9.8633h295.99c5.4492 0 9.8672 4.4141 9.8672 9.8633s-4.418 9.8672-9.8672 9.8672z"/>
  <path d="m524 464.8h-295.99c-5.4492 0-9.8672-4.418-9.8672-9.8672 0-5.4453 4.418-9.8633 9.8672-9.8633h295.99c5.4492 0 9.8672 4.418 9.8672 9.8633 0 5.4492-4.418 9.8672-9.8672 9.8672z"/>
 </g>
</svg>
